<svg xmlns="http://www.w3.org/2000/svg" width="42.6" height="42.617" viewBox="0 0 42.6 42.617">
    <defs>
        <style>
            .cls-1{fill:#fff;opacity:.53}
        </style>
    </defs>
    <path id="watch" d="M21.316 0a21.3 21.3 0 1 0 15.052 6.24A21.294 21.294 0 0 0 21.316 0zm-10.86 20.146a1.163 1.163 0 0 0 0 2.326h10.86a1.163 1.163 0 0 0 1-.589l.017-.017.017-.033v-.017l.017-.033.017-.033v-.017l.016-.033.017-.017v-.033l.017-.033V21.6l.017-.033V21.5l.017-.017V7.436a1.139 1.139 0 0 0-1.146-1.146 1.153 1.153 0 0 0-1.163 1.146v12.71zM7.885 7.879a18.979 18.979 0 1 1-5.569 13.43 18.926 18.926 0 0 1 5.569-13.43z" class="cls-1" transform="translate(-.008)"/>
</svg>
