<svg xmlns="http://www.w3.org/2000/svg" width="30.5" height="30.5" viewBox="0 0 30.5 30.5">
    <defs>
        <style>
            .cls-1{opacity:.2}
        </style>
    </defs>
    <g id="shopping-cart_1_" class="cls-1" data-name="shopping-cart (1)">
        <g id="shopping-cart">
            <path id="Path_223" d="M9.15 24.4a3.05 3.05 0 1 0 3.05 3.05 3.059 3.059 0 0 0-3.05-3.05zM0 0v3.05h3.05l5.49 11.59-2.135 3.66a5.418 5.418 0 0 0-.3 1.525 3.059 3.059 0 0 0 3.05 3.05h18.3v-3.05H9.76a.328.328 0 0 1-.305-.305v-.153l1.373-2.593h11.285A2.781 2.781 0 0 0 24.7 15.25l5.49-9.912a.84.84 0 0 0 .305-.762 1.441 1.441 0 0 0-1.52-1.526H6.405L5.033 0zm24.4 24.4a3.05 3.05 0 1 0 3.05 3.05 3.059 3.059 0 0 0-3.05-3.05z" data-name="Path 223"/>
        </g>
    </g>
</svg>
