<svg xmlns="http://www.w3.org/2000/svg" id="Group_169" width="6.819" height="7.759" data-name="Group 169" viewBox="0 0 6.819 7.759">
    <defs>
        <style>
            .cls-1{fill:#ee7900}
        </style>
    </defs>
    <g id="Group_79" data-name="Group 79" transform="translate(1.818 .909)">
        <g id="Group_78" data-name="Group 78">
            <path id="Path_214" d="M152.591 60a1.591 1.591 0 0 0-.856 2.932 1.624 1.624 0 0 0 1.582.086.227.227 0 0 0-.19-.413 1.178 1.178 0 0 1-1.147-.056 1.136 1.136 0 1 1 1.748-.958.227.227 0 0 1-.455 0 .508.508 0 1 0 .909 0A1.593 1.593 0 0 0 152.591 60zm.224 1.628a.227.227 0 1 1 0-.062.227.227 0 0 0 0 .062z" class="cls-1" data-name="Path 214" transform="translate(-151 -60)"/>
        </g>
    </g>
    <g id="Group_81" data-name="Group 81">
        <g id="Group_80" data-name="Group 80">
            <path id="Path_215" d="M37.819 2.985a.229.229 0 0 0-.067-.16l-.843-.843V.227A.227.227 0 0 0 36.683 0h-4.546a.227.227 0 0 0-.227.227v1.755l-.843.843a.228.228 0 0 0-.067.16v4.092a.683.683 0 0 0 .682.682h5.455a.683.683 0 0 0 .682-.682V2.985zm-.909-.36l.36.36-.36.36zm-4.546-.549V.455h4.092V3.8l-1.231 1.231h-1.63L32.364 3.8zm-.455.549v.721l-.36-.36zm-.455 4.358V3.534l1.724 1.724zm.321.321l1.818-1.818h1.63l1.82 1.814zm5.589-.321L35.64 5.258l1.724-1.724z" class="cls-1" data-name="Path 215" transform="translate(-31)"/>
        </g>
    </g>
</svg>
