<svg xmlns="http://www.w3.org/2000/svg" id="Group_167" width="7.758" height="7.759" data-name="Group 167" viewBox="0 0 7.758 7.759">
    <defs>
        <style>
            .cls-1{fill:#ee7900}
        </style>
    </defs>
    <g id="Group_67" data-name="Group 67">
        <path id="Path_209" d="M7.57 5.723l-.965-.965a.683.683 0 0 0-.965 0L5.2 5.2a.517.517 0 0 1-.731 0l-1.9-1.9a.516.516 0 0 1 0-.731l.438-.438a.682.682 0 0 0 0-.965L2.045.2a.683.683 0 0 0-.964 0L.73.547a2.462 2.462 0 0 0 0 3.478l3.011 3.013a2.458 2.458 0 0 0 3.478 0l.351-.351a.683.683 0 0 0 0-.964zM1.4.521a.228.228 0 0 1 .322 0l.964.961a.227.227 0 0 1 0 .322l-.161.161L1.242.68zm2.66 6.2L1.051 3.7A2 2 0 0 1 .926 1l1.281 1.288a.97.97 0 0 0 .043 1.328l1.9 1.9a.97.97 0 0 0 1.328.042L6.76 6.842a2 2 0 0 1-2.698-.126zm3.186-.351l-.161.161L5.8 5.24l.161-.161a.228.228 0 0 1 .322 0l.965.965a.228.228 0 0 1 0 .322z" class="cls-1" data-name="Path 209" transform="translate(-.011)"/>
    </g>
</svg>
