<svg xmlns="http://www.w3.org/2000/svg" id="Group_211" width="19.709" height="23.496" data-name="Group 211" viewBox="0 0 19.709 23.496">
    <defs>
        <style>
            .cls-1{fill:#e55d09}
        </style>
    </defs>
    <path id="Path_221" d="M23.176 27.606l-.076.094a12.686 12.686 0 0 1-9.775 4.851A12.685 12.685 0 0 1 3.546 27.7l-.079-.094.019-.123a10.074 10.074 0 0 1 4.831-7.429l.186-.107.148.155a6.441 6.441 0 0 0 9.342 0l.148-.155.186.107a10.078 10.078 0 0 1 4.831 7.429z" class="cls-1" data-name="Path 221" transform="translate(-3.467 -9.055)"/>
    <path id="Path_222" d="M16.637 0A5.867 5.867 0 1 0 22.5 5.867 5.874 5.874 0 0 0 16.637 0" class="cls-1" data-name="Path 222" transform="translate(-6.782)"/>
</svg>
