<svg xmlns="http://www.w3.org/2000/svg" width="146.2" height="106.039" viewBox="0 0 146.2 106.039">
    <defs>
        <style>
            .cls-1,.cls-6{fill:#291568}.cls-1,.cls-2,.cls-3,.cls-4,.cls-5{fill-rule:evenodd}.cls-2,.cls-7{fill:#fff}.cls-3{fill:url(#radial-gradient)}.cls-4{fill:#ee7900}.cls-5{fill:#432571}
        </style>
        <radialGradient id="radial-gradient" cx="-20.173" cy="-13.713" r=".812" gradientTransform="matrix(.505 0 0 1 -8.496 0)">
            <stop offset="0" stop-color="#ffe800"/>
            <stop offset="1" stop-color="#e55d09"/>
        </radialGradient>
    </defs>
    <g id="Group_1" data-name="Group 1" transform="translate(-424.376 -170.933)">
        <path id="Path_1" d="M572.4 191.23l-.088.322-.117.293-.089.294-.117.321-.088.293-.147.5-.468 1.465-.147.5-.438 1.348-.206.615-.234.732.351-.029.439-.029.41-.03.41-.057.381-.059.351-.059.44-.117.469-.088.468-.117.47-.118.468-.116.5-.117.469-.117.5-.117.528-.088.527-.088.556-.088.557-.088.586-.059.586-.029.614-.029h1.436l.763.029.7.029a5.179 5.179 0 0 0 .672.059 5.774 5.774 0 0 0 .7.146 4.624 4.624 0 0 1 2.4 1.67c1.231 2.225-1.171 4.248-2.928 5.184l-.586.323-.645.293-.615.292-.234.147-.352.205-.351.205-.381.205-.352.175-.38.205-.351.205-.382.175-.058.029.322.059.526.088.556.088.557.117.557.117.527.147.558.146.526.147.527.175.556.176.5.205.528.234.5.234.5.234c.175.088.351.176.5.264.177.088.323.205.5.293.146.088.292.205.469.293l.439.352a13.258 13.258 0 0 1 1.992 1.874c.82 1.376.673 2.2-.029 3.574a9.24 9.24 0 0 1-2.051 1.817 3.7 3.7 0 0 0-.439.292 6.343 6.343 0 0 0-.469.264l-.469.264-.5.234-.5.234-.5.205-.5.205-.5.205-.527.175-.527.175-.5.177-.527.147-.557.175-.528.117-.527.146-.527.146-.526.117-.528.117-.527.117-.527.088-.527.117h-.059l.088.058.529.264.5.264.527.292.528.293.5.293.5.293.5.322.5.322.469.322 7.7 5.653-22.672.263-.615-.263h-.029l-.028-.029h-.06l-.059-.029-.088-.029-1.142-.469-.5.85-9.55.118-.264-.089-.088.089-26.042.321-.966-.879-.146-.146-.117-.088-.088-.088-.088-.089-.118-.116-.089-.088-.116-.117-.059-.059-.293-.293-.39-.347-.322-.381-.234-.264.146.322-3.309 1.231-.47.175-.469.146-.439.147-.469.147-.469.116-.439.118-.558.117-.467.088-.381.059-.38.088-.381.058-.381.059-.411.088-.38.059-.644.117-8.2.088-.675-.293-.058-.029-.087-.059-.088-.059-.088-.029-.088-.059-.087-.029-2.285-1.377 1.231-2.842.292-.527.352-.468.352-.439.381-.352.351-.351.382-.294.351-.263.381-.234.322-.234.351-.2.323-.177.322-.176.263-.146.264-.146.265-.118.468-.263.469-.235.469-.234.469-.205.44-.234.439-.205.116-.059-.379-.059-.47-.059-.438-.088-.44-.059-.5-.088-.44-.059a9.286 9.286 0 0 1-.41-.088 2.282 2.282 0 0 0-.44-.058c-.146-.029-.262-.059-.41-.088l-.439-.088-.439-.087a7.747 7.747 0 0 1-.41-.089c-.176-.029-.322-.058-.47-.087a2.49 2.49 0 0 0-.438-.118 2.388 2.388 0 0 0-.439-.116c-.147-.059-.294-.089-.44-.147-.146-.029-.322-.088-.468-.117l-.44-.176a4.158 4.158 0 0 0-.468-.147c-.147-.058-.323-.146-.47-.205a4.841 4.841 0 0 1-2.782-2.694c-.527-1.143-.293-2.256 1.143-3.164 1.846-1.171 4.247-1.523 6.327-1.992a3.731 3.731 0 0 0 .557-.117 3.331 3.331 0 0 0 .527-.117l.557-.088.557-.116.117-.029-.352-.235-.469-.264c-.147-.087-.323-.176-.469-.264-.175-.088-.35-.176-.527-.263a3.74 3.74 0 0 0-.5-.235l-.557-.263-.557-.264-.557-.263-.585-.263c-.586-.293-1.2-.557-1.787-.879A4.9 4.9 0 0 1 503 203.62a4.085 4.085 0 0 1-.059-2.578 4.254 4.254 0 0 1 1.377-1.64 8.05 8.05 0 0 1 2.549-.908l.322-.059.322-.029.323-.059.322-.029.293-.029.322-.029h.292l.294-.029h.292l.292-.029h.557l.382-.029h.263l.264.029h.614l.353.029h.38l.41.029.47.029.438.029.5.059.5.029.527.058.527.059.557.06.38.058-.293-.205-.41-.322-.469-.322-.439-.352-.439-.322-.439-.351-.44-.352-.44-.351-.409-.352-.41-.38-.41-.41-.41-.381-.381-.439c-.117-.147-.235-.263-.352-.41-.117-.176-.234-.322-.351-.468-.118-.176-.205-.323-.322-.5a5.237 5.237 0 0 1-.791-3.252 2.364 2.364 0 0 1 1.552-1.992 7.415 7.415 0 0 1 3.281-.5 3.586 3.586 0 0 1 .555.029 3.258 3.258 0 0 1 .529.059 3.21 3.21 0 0 1 .556.059l.527.088.527.088a3.429 3.429 0 0 0 .527.118l.527.146.526.146.529.146.527.176.5.176.527.176.5.176.5.205.5.205.5.205.469.234.5.205.469.234.469.2.438.235.323.176-.088-.2-.146-.352-.147-.322-.146-.323-.117-.322-.146-.322-.263-.556-.147-.381-.146-.322-.146-.322-.146-.322-.264-.615-.147-.323-.146-.321-.088-.176-.117-.146-.147-.293-.175-.292-.148-.265-.175-.293-.147-.264-.117-.293-.147-.293-.145-.293-.118-.293-.117-.293-.117-.322c-.322-.85-.41-1.67-.674-2.549-.5-3.866.526-4.921 3.281-4.189a9.9 9.9 0 0 1 3.9 2.637l.293.293.351.322.322.293.323.322.322.322.324.322.321.322.293.352.322.322.292.322.322.322.293.351.293.323.293.351.292.322.294.352.264.322.292.352.293.322.264.352.292.351.263.352.293.322.263.351.264.352.293.323.264.352.146.205v-.088l.089-.41.116-.381.176-.819.118-.381.087-.41.089-.38.088-.41.088-.381.088-.381.058-.41.089-.381.059-.381.058-.352.058-.381.059-.351.058-.5.059-.381.028-.175.03-.264v-1.611l.029-.5v-.527l.031-.527c.028-.176.028-.381.057-.557.03-.205.06-.411.088-.615.059-.2.118-.41.176-.644a5.365 5.365 0 0 1 2.2-2.871 3.572 3.572 0 0 1 4.043.03 11.594 11.594 0 0 1 2.46 3.485l.263.557.263.557.235.556.235.586.2.557.2.586.205.586.176.586.176.615.175.585.147.615.146.615.146.586.088.439.088-.147.264-.439.263-.439.293-.439.263-.41.264-.411.264-.41.263-.41.263-.41.264-.38.234-.381.265-.381.2-.38.235-.381.2-.352.263-.5c.147-.205.294-.44.44-.645l.44-.615c.176-.205.322-.382.5-.586a7.929 7.929 0 0 1 3.369-2.2c3.368-.615 4.423 2.461 3.838 5.3l-.266.937-.409 1.055-.293.586-.176.41-.205.41-.147.41-.146.381-.146.381-.118.351-.088.381-.118.352-.087.351-.059.352-.088.351-.06.352-.029.351-.059.352-.028.352-.03.352v.38l-.029.352v.762l.029.41v.381l.03.41.028.41v.381l.148-.176.176-.293.205-.44.146-.263.176-.322.235-.322.233-.352.264-.381.324-.439.321-.439.352-.469.381-.5.41-.527.441-.527.438-.527.441-.527.468-.5.468-.527.469-.5.5-.469.468-.469.5-.439a8.191 8.191 0 0 1 3.281-1.7 2.966 2.966 0 0 1 3.457 1.523 6.073 6.073 0 0 1 .469 4.775c-.058.205-.117.41-.176.586l-.116.322-.118.293-.088.293-.117.322-.117.293-.088.322-.116.263-.264.879-.117.293-.176.615-.117.322-.088.293z" class="cls-1" data-name="Path 1" transform="translate(-50.064)"/>
        <path id="Path_2" d="M548.726 178.823l.2.41.234.5.235.5.234.527.2.527.205.556.205.557.175.557.177.556.175.557.147.586.146.586.147.586.146.557.117.586.117.615.117.586.117.586.089.586.087.557.088.586.088.586.059.557.059.586.059.556.058.557v.088l.029-.146.088-.528.117-.5.118-.5.145-.5.176-.468.176-.468.176-.469.233-.469.206-.439.234-.44.234-.439.234-.439.264-.439.264-.41.264-.44.264-.41.263-.41.264-.41.264-.41.263-.41.263-.41.265-.381.234-.41.263-.381.234-.41.234-.38.235-.411.234-.439.352-.557.38-.527a8.253 8.253 0 0 1 2.167-1.876c1.553-.732 2.4-.146 2.578 1.524a8.667 8.667 0 0 1-.44 2.138l-.351.938-.234.527-.234.469-.175.439-.175.439-.177.411-.146.439-.146.41-.117.41-.118.41-.088.381-.088.41-.059.381-.088.41-.03.381-.058.41-.029.381-.03.41-.029.381v1.64l.029.41v.439l.03.439.029.439.029.44.028.468.059.469.029.469.06.5.029.557v.7l.2-.118.234-.146.263-.176.264-.205.294-.234.291-.234.294-.293.292-.264.293-.322.293-.322.264-.352.234-.381.235-.41.234-.469.086-.176.147-.234.205-.293.206-.322.263-.381.293-.41.322-.41.352-.469.381-.468.381-.5.41-.527.439-.5.439-.5.439-.527.441-.469.44-.469.439-.439.469-.439.41-.381.439-.352c.146-.088.293-.205.439-.293a5.349 5.349 0 0 1 1.465-.615 1.78 1.78 0 0 1 1.757.762 4.688 4.688 0 0 1 .059 3.72l-.088.322-.118.293-.117.323-.088.293-.117.323-.088.292-.117.293-.293.908-.088.293-.117.293-.088.322-.088.293-.116.322-.294.908-.087.293-.118.322-.088.293-.088.322-.117.292-.147.5-.469 1.464-.146.5-.44 1.348-.177.615-.468 1.464-.176.5-.294.967-.086.235h.351l1.054-.059h.528l.5-.029.5-.028.5-.059.439-.029.469-.059.411-.058.409-.088.5-.117.468-.088.5-.117.468-.117.469-.117.469-.117.47-.117.468-.088.5-.116.5-.089.5-.059.5-.087.526-.03.529-.058h2.665a6.468 6.468 0 0 1 2.2.41c.732.469.908.879.7 1.553a2.358 2.358 0 0 1-.79.967 4.188 4.188 0 0 1-.381.263l-.439.264c-.146.088-.322.176-.469.264a3.338 3.338 0 0 0-.557.292l-.644.293-.644.323-.291.176-.353.175-.352.205-.351.205-.351.176-.352.205-.353.176-.381.205-.35.176-.383.175-.381.205-.381.176-.381.176-.381.176-.381.176-.381.176-.38.175-.41.147-.38.176-.41.146-.381.176-.381.147-.41.146-.381.146-.411.117-.381.147-.409.117-.381.146h-.059l.205-.029.292-.028h.323l.293-.03.322-.029.294-.029h.791l.47-.029h.966l.5.029h.5l.5.029.527.029.5.058.528.059.527.058.528.059.5.089.526.058.526.118.5.087.527.118.5.146.5.117.5.147.5.176.5.146.469.205.469.176a3.029 3.029 0 0 0 .439.205c.147.087.294.146.469.233.116.088.264.147.41.235a3.156 3.156 0 0 0 .439.234c.116.088.263.176.409.264a3.523 3.523 0 0 0 .381.293 12.006 12.006 0 0 1 1.553 1.435 1.115 1.115 0 0 1-.029 1.582 8.236 8.236 0 0 1-1.524 1.318 2.747 2.747 0 0 0-.381.234 2.915 2.915 0 0 1-.409.234l-.41.235-.439.234-.44.205-.468.205-.469.175-.469.177-.468.175-.5.176-.5.147-.5.146-.5.146-.528.147-.5.117-.526.146-.5.118-.527.116-.5.089-.528.116-.5.089-.5.087-.5.117-.5.088-.5.059-.469.088-.5.087-.44.059-.439.088-.438.058-.44.088-.44.059-.41.087-.176.03.088.029.264.117.234.118.264.117.264.117.264.117.293.117.263.146.292.117.5.234.5.234.5.234.5.264.526.234.5.264.527.264.5.263.5.264.5.264.469.293.5.293.469.293.438.292.439.293 3.311 2.431-16.844.205-.263-.088-.059-.03-.029-.028h-.059l-.058-.029-.059-.029-1.2-.5.675-1.464.146-.352.146-.322.118-.352.145-.352.117-.321.118-.353.117-.351.117-.352.089-.352.086-.381.089-.351.088-.352.088-.38.088-.352.177-.937.087-1 .057-.323v-.352l.03-.351.029-.352v-.322l.029-.352v-.732l-.029-.41-.029-.41-.03-.41-.029-.41-.029-.41-.059-.41-.058-.439-.059-.41-.088-.41-.058-.381-.088-.41-.088-.381-.089-.381-.087-.351-.44-1.67-.059-.029-.41-1-.176-.351-.146-.352-.147-.352-.176-.351-.176-.322-.176-.352-.2-.323-.175-.321-.205-.322-.205-.322-.2-.322-.2-.322-.206-.323-.235-.292-.849-1.143-.029-.029-.529-.586-.292-.322-.323-.322-.321-.322-.324-.322-.321-.322-.352-.293-.351-.322-.352-.293-.352-.263-.351-.293-.381-.264-.382-.263-.38-.264-.382-.235-1.611-1.025h-.117l-.644-.293-.352-.175-.38-.176-.381-.147-.381-.175-.381-.146-.38-.117-.381-.147-.41-.117-.381-.146-.41-.117-.409-.089-.381-.117-.41-.088-.41-.088-1.376-.264-1.465-.118-.293-.029-.322-.029h-.322l-.322-.029h-.908v-17.274zm0 51.82l2.783-.029 6.239-.088.439-.469.323-.264.293-.322.293-.323.292-.322.264-.322.293-.352.234-.351.263-.352.235-.381.2-.352.235-.381.2-.41.176-.381.2-.41.177-.38.145-.41.147-.352.145-.38.147-.41.118-.41.117-.41.087-.41.088-.41.059-.41.088-.411.029-.439.059-.41.029-.439.03-.41v-1.318l-.03-.322v-.322l-.058-.322-.03-.323-.059-.321-.058-.293-.059-.322-.057-.323-.089-.292-.088-.293-.088-.293-.088-.292-.118-.293-.086-.293-.118-.293-.117-.293-.176-.322-.147-.352-.175-.322-.176-.322-.2-.322-.205-.294-.205-.322-.205-.293-.234-.293-.235-.293-.264-.293-.234-.264-.262-.264-.264-.263-.262-.264-.294-.234-.468-.41-.528-.41-.556-.41-.587-.352-.585-.352-.615-.322-.615-.263-.644-.264-.645-.234-.674-.205-.7-.176-.674-.147-.7-.117-.732-.059-.733-.058h-.292v6.561l.409.029.411.029.41.059.41.087.38.089.382.117.381.146.352.146.381.146.322.176.352.205.322.205.322.205.293.234.264.234.292.264.235.265.264.263.234.293.205.293.206.293.176.322.176.293.146.321.118.352.117.323.117.352.088.322.058.38.058.352.031.352v.527l-.031.556-.058.528-.058.5-.117.5-.117.5-.177.5-.176.469-.205.469-.234.44-.235.439-.292.41-.294.41-.322.41-.321.381-.381.381-.234.233-.265.235-.264.234-.263.205-.293.205-.293.205-.293.205-.322.176-.322.176-.323.176-.322.146-.351.147-.322.117-.351.146-.382.088-.292.088v2.4zm0-2.9l.2-.088.5-.175.47-.234.439-.205.44-.264.439-.264.41-.293.382-.293.381-.322.382-.322.35-.41.323-.381.322-.41.293-.41.263-.439.264-.439.205-.439.205-.469.205-.469.146-.5.118-.5.117-.5.087-.527.06-.5.029-.528v-.557l-.029-.352-.06-.322-.057-.351-.059-.323-.118-.351-.088-.323-.146-.292-.147-.323-.146-.292-.176-.293-.176-.293-.2-.263-.205-.264-.234-.264-.235-.235-.233-.2-.264-.205-.234-.205-.264-.176-.293-.176-.264-.146-.293-.146-.292-.147-.323-.117-.292-.088-.322-.117-.322-.059-.352-.087-.322-.03-.352-.059h-.527v6.562h.088l.059.029.088.029.058.029.059.029.03.029.028.03.03.029v.058l.029.029v.5l-.029.175-.03.147-.058.176-.059.146-.058.146-.058.147-.088.176-.059.117-.029.029v7.821zm0-23.815h.117l.381.028.41.03.38.029.381.059.41.058.381.059.38.059.353.088.38.088.38.117.352.088.381.117.351.117.351.147.351.147.352.146.352.147.322.147.352.176.322.175.323.176.322.2.321.205.293.205.323.205.293.205.293.234.293.205.293.234.294.264.117.117.117.088.087.088.118.087.117.117.088.088.117.117.059.087.234.205.2.234.206.264.2.234.205.264.205.234.175.264.177.263.175.264.176.264.176.264.145.292.147.264.146.293.146.293.148.264.116.293.117.293.117.292.088.293.118.322.088.293.087.293.058.322.088.292.058.322.059.293.029.322.059.323.029.321v.294l.029.351v.352l.03.381-.03.381v.352l-.029.352-.029.381-.03.352-.058.352-.03.352-.059.352-.087.352-.059.351-.089.352-.087.322-.118.352-.088.322-.116.352-.118.322-.117.322-.148.322-.146.322-.147.322-.147.322-.146.293-.176.322-.176.293-.177.294-.175.293-.205.293-.205.293-.205.292-1.669 2.227 8.114-.088.528-.908.146-.323.176-.321.146-.323.176-.321.145-.323.147-.322.118-.323.233-.586.205-.557.2-.586.177-.585.175-.586.146-.586.117-.586.117-.586.088-.615.088-.615.058-.615.06-.615.029-.615v-1.259l-.029-.615v-.469l-.03-.5-.058-.469-.059-.469-.058-.468-.088-.469-.088-.469-.117-.44-.088-.469-.148-.439-.116-.439-.147-.439-.147-.44-.176-.439-.175-.41-.175-.44-.235-.5-.263-.528-.264-.5-.292-.5-.265-.469-.322-.469-.322-.468-.323-.469-.351-.469-.352-.439-.352-.41-.381-.439-.411-.41-.38-.41-.41-.381-.438-.38-.206-.176-.234-.205-.234-.205-.234-.205-.264-.205-.234-.176-.262-.205-.264-.176-.352-.264-.382-.234-.352-.234-.381-.235-.381-.2-.381-.205-.41-.2-.38-.205-.411-.205-.38-.176-.41-.176-.411-.176-.41-.175-.439-.147-.41-.146-.44-.146-.41-.117-.44-.117-.415-.114-.44-.117-.44-.088-.468-.117-.439-.059-.439-.087-.469-.059-.469-.059-.439-.029-.469-.059-.469-.029h-.732zm-37.349 27.008l-.058-.029-.059-.03-.058-.028-.06-.029-.059-.059-.937-.556.556-1.289.206-.352.264-.35.234-.294.293-.293.293-.263.293-.234.292-.234.323-.205.293-.176.321-.205.293-.146.293-.175.264-.146.265-.118.234-.146.44-.234.469-.235.468-.2.439-.234.44-.205.468-.234.441-.205.41-.235.438-.234.41-.234.41-.234.381-.234.352-.264.351-.264.322-.264.322-.321.029-.029.059-.06.293-.264.177-.146h-.118l-.468-.029-.469-.029-.469-.029-.467-.059-.44-.029-.468-.059-.469-.058-.44-.059-.469-.059-.44-.059-.439-.059-.468-.059-.44-.088-.44-.058-.469-.059-.439-.088-.41-.088-.41-.058-.411-.089-.41-.059-.41-.087-.41-.088-.44-.117-.41-.088-.41-.117-.41-.117-.411-.117-.409-.146-.439-.147-.41-.176-.469-.205-.439-.235-.381-.351a1.787 1.787 0 0 1-.527-1.025v-.029c0-.352.233-.616.7-1l.41-.263.382-.147.352-.117.351-.088.352-.088.381-.088.409-.117.44-.088.44-.117.468-.117.47-.118.5-.117.529-.117.526-.088.527-.117.527-.117.557-.117.557-.088.557-.088.557-.117.585-.088.557-.059.556-.088.557-.059.556-.058.293-.029-.147-.059-.441-.2-.409-.205-.41-.234-.381-.234-.381-.293-.322-.264-.469-.381-.439-.352-.5-.352-.469-.293-.527-.322-.527-.263-.528-.293-.557-.264-.556-.263-.585-.264-.557-.265-.557-.263-.588-.271-.556-.264-.556-.293a2.471 2.471 0 0 1-1.318-1.23c-.206-.733-.235-1.172.293-1.7a3.156 3.156 0 0 1 1.553-.791l.293-.059.322-.058.292-.059.294-.029.263-.029.293-.029.293-.029.264-.03.294-.029h.292l.264-.029h.557l.293-.03h.762l.293.03h.644l.381.029.409.029.441.03.439.029.469.029.5.029.5.059.527.059.528.058.526.058.528.088.528.088.527.088.526.088.527.118.528.117.5.146.468.146.5.146.441.176.439.176.409.2.411.234.205.146-.059-.058-.176-.206-.175-.234-.148-.205-.146-.235-.146-.205-.147-.234-.146-.235-.146-.2-.175-.205-.235-.234-.235-.264-.293-.263-.293-.264-.351-.263-.352-.293-.38-.293-.381-.293-.41-.293-.411-.322-.41-.293-.439-.322-.439-.322-.41-.322-.44-.322-.439-.323-.41-.322-.439-.352-.409-.322-.382-.352-.381-.352-.382-.351-.35-.352-.324-.351-.322-.381c-.087-.117-.175-.264-.263-.381a3.557 3.557 0 0 1-.82-2.255 1.045 1.045 0 0 1 .674-.85 4.813 4.813 0 0 1 1.816-.293h.469a2.535 2.535 0 0 0 .469.029l.5.059.47.059.468.088.5.088.5.117.469.117.5.117.468.147.5.146.469.176.5.176.469.176.468.176.5.205.468.205.44.2.469.205.469.205.439.234.439.205.441.234.409.2.41.234.41.205.41.234.381.205.382.2.351.205.263.146.293.176.292.147.263.176.293.176.264.205.264.175.176.146.089.059.058.029-.2-.322-.205-.352-.177-.351-.176-.323-.146-.322-.176-.323-.175-.322-.148-.322-.146-.322-.147-.323-.176-.322-.146-.323-.147-.351-.146-.322-.146-.322-.146-.322-.148-.322-.116-.322-.146-.322-.148-.322-.146-.322-.147-.322-.116-.322-.147-.322-.146-.322-.147-.322-.146-.322-.147-.322-.116-.322-.147-.322-.146-.322-.176-.322-.117-.264-.147-.205-.146-.293-.147-.264-.146-.264-.146-.235-.147-.263-.117-.264-.117-.264-.117-.234-.117-.264-.117-.293-.088-.264-.117-.293-.088-.293a6.467 6.467 0 0 1-.469-3.047c.293-.7.849-.7 1.465-.527a8.366 8.366 0 0 1 2.431 1.729 3.272 3.272 0 0 1 .323.293 2.91 2.91 0 0 0 .322.293 1.56 1.56 0 0 0 .322.292 3.363 3.363 0 0 0 .322.322l.293.293.322.322.293.322.323.293.293.322.293.322.322.322.293.322.294.322.263.322.293.322.294.352.293.322.263.322.293.351.264.322.263.352.294.323.264.351.264.322.292.351.264.322.264.351.264.322.263.352.264.351.264.322.263.352.293.381.264.38.235.381.2.381.205.38.2.381.088.234.029-.146v-.352l.059-.322.03-.352.059-.352.058-.352.058-.351.088-.381.06-.351.088-.381.088-.381.088-.381.088-.41.088-.381.117-.41.176-.791.117-.41.088-.381.088-.41.088-.41.088-.41.088-.41.088-.381.058-.41.088-.41.058-.381.06-.41.057-.381.059-.44.059-.352.029-.293.03-.351.029-.41v-1.733l.029-.5.029-.469.029-.47c.029-.146.059-.321.088-.469.029-.175.088-.322.117-.468a3.375 3.375 0 0 1 1.025-1.582 1.8 1.8 0 0 1 2.49-.234 7.322 7.322 0 0 1 1.347 1.787 3.756 3.756 0 0 1 .234.5l.059.088v17.283h-.644l-.292.029-.324.029h-.292l-.323.029-.293.03-.322.029-.292.059-.293.029-.294.029-.322.058-.293.059-.293.059-.293.058-.322.059-.147.028-.147.03-.117.029-.116.029h-.089l-.117.029-.087.029-.147.059-.088.029h-.029l-.059.03h-.113l-.029.029h-.058l-1.173.351-1.025.381-.293.117-.322.117-.292.147-.294.117-.293.146-.293.146-.263.117-.293.146-.293.147-.264.176-.294.146-.263.147-.293.176-.263.175-1.26.791-.234.205-.761.586-.352.293-.322.264-.323.293-.351.293-.294.322-.322.292-.323.322-.292.322-.293.322-.293.322-.293.322-.263.351-.293.352-.264.352-.937 1.289-.587 1.054-.292.5-.175.322-.177.352-.146.352-.176.322-.147.352-.146.352-.146.352-.146.351-.147.381-.117.352-.117.352-.118.38-.117.352-.088.382-.234.878-.145.761-.06.294-.059.263-.029.293-.057.293-.03.264-.029.292-.03.293-.029.293-.029.293-.029.293v.293l-.029.263v1.407l.029.7.058 1 .06.409.058.439.057.41.059.41.089.44.086.41.088.41.088.409.117.381.117.411.117.41.117.38.146.41.147.381.585 1.523-1.581.586-.41.176-.44.117-.438.147-.41.117-.439.118-.44.117-.44.117-.439.059-.381.088-.381.058-.381.059-.381.088-.41.059-.381.058-.5.088-7.646.087-.293-.117-.059-.029zm37.349-33.54l-.176-.029-.5.029h-.55l-.557.029-.556.029-.557.058-.527.059-.556.088-.527.088-.527.117-.529.087-.526.147-.5.147-.527.146-.5.146-.5.176-.5.176-.469.2-.5.205-.47.234-.468.205-.468.265-.439.234-.44.263-.44.264-.439.293-.41.293-.409.293-.41.293-.41.322-.381.322-.381.352-.381.352-.322.292-.088.088-.146.147-.146.117-.146.146-.147.146-.117.146-.146.147-.089.117-.293.322-.293.351-.292.38-.264.382-.294.352-.233.381-.264.381-.234.41-.234.41-.264.439-.234.439-.2.439-.206.439-.2.469-.205.469-.146.469-.176.469-.147.5-.146.469-.117.5-.117.5-.088.5-.088.5-.088.527-.029.381-.058.41-.029.41-.029.41v1.26l.029.41v.41l.029.234v.205l.029.205.029.205.029.2.029.176.059.469.088.468.088.469.117.469.117.439.146.469.147.439.176.439.176.439.175.439.2.41.206.439.234.411.233.38.265.41.234.381.234.352.263.351.234.351.294.322.264.352.322.323.293.322.293.293.088.058.117.117.088.088.088.117.116.088.088.087.089.089.117.117.439.381 6.767-.059 8.817-.117v-2.4l-3.076.879-3.545-.879-.381-.088-.351-.117-.381-.146-.352-.146-.352-.146-.352-.147-.35-.176-.322-.175-.322-.205-.322-.205-.323-.2-.292-.205-.322-.234-.292-.234-.266-.264-.292-.264-.264-.235-.263-.263-.235-.293-.235-.263-.234-.293-.234-.293-.205-.322-.177-.293-.2-.323-.176-.321-.146-.352-.177-.321-.117-.352-.146-.352-.118-.352-.116-.322-.059-.293-.087-.322-.059-.293-.058-.352-.03-.322-.029-.351-.029-.322v-1l.029-.264v-.234l.029-.264.03-.235.029-.264.028-.235.059-.234.029-.264.059-.234.059-.234.058-.234.088-.264.117-.41.117-.41.146-.41.176-.41.176-.38.176-.41.2-.381.205-.352.233-.381.235-.352.234-.351.264-.352.293-.321.264-.323.321-.322.324-.293.264-.264.234-.234.263-.234.263-.234.264-.205.293-.205.293-.234.264-.176.323-.2.292-.177.294-.175.322-.176.322-.176.321-.147.323-.146.351-.146.323-.147.351-.117.352-.117.352-.117.381-.117.352-.088.381-.088.35-.088.382-.059.381-.059.382-.058.381-.059.409-.029.38-.03.411-.028h1.055V197.4zm0 6.943h-.411l-.7.029-.732.059-.7.088-.7.146-.7.146-.673.176-.674.235-.645.234-.615.293-.615.293-.586.351-.586.352-.556.381-.528.41-.527.44-.469.439-.468.5-.469.5-.41.557-.381.527-.381.585-.323.586-.321.586-.264.644-.234.615-.234.674-.146.645-.147.674-.118.7-.058.674-.029.733v.7l.059.556.059.5.088.527.117.5.147.5.176.5.2.469.205.469.234.439.263.439.264.41.293.41.322.41.35.352.352.381.352.321.381.323.381.321.411.294.44.264.41.264.468.234.44.205.5.2.47.176.5.146.5.146.5.088.527.088.527.059.527.029h.528l.557-.029.556-.029.527-.087.527-.088.5-.117.527-.147.235-.088v-7.821l-.088.117-.058.146-.117.117-.118.146-.117.117-.146.146-.147.117-.145.117-.148.117-.176.088-.146.088-.175.089-.176.087-.176.059-.205.059-.205.059-.206.029-.2.059-.2.03h-.908l-.235-.03-.206-.03-.234-.029-.2-.058-.206-.059-.2-.059-.177-.088-.2-.088-.175-.088-.176-.088-.176-.118-.176-.117-.176-.118-.146-.117-.118-.117-.146-.147-.116-.146-.118-.176-.117-.146-.118-.176-.088-.146-.088-.176-.087-.176-.088-.176-.059-.176-.059-.176-.029-.176-.029-.176-.029-.176v-.878l.029-.352.058-.322.089-.352.087-.322.088-.323.147-.321.116-.293.147-.293.175-.293.176-.293.2-.264.205-.264.235-.234.234-.264.264-.235.263-.234.294-.234.293-.205.321-.205.294-.176.35-.147.324-.176.351-.117.381-.117.352-.117.381-.088.38-.058.409-.059.381-.029h.821v-6.561zm0 6.972h-.5l-.322.029-.351.059-.322.058-.351.059-.323.088-.292.117-.322.117-.293.146-.294.146-.293.147-.293.175-.263.176-.264.205-.234.205-.264.234-.233.265-.234.263-.206.263-.2.264-.176.293-.176.293-.147.293-.147.322-.117.322-.087.322-.118.322-.058.352-.057.322-.03.351-.029.352v.351l.06.469.057.5.146.556.322.586.528.5.674.352.762.176h.878l.909-.117.761-.234.644-.41.469-.557.293-.615.088-.557.029-.469v-.527h.118l.058-.029h.117l.088.029z" class="cls-2" data-name="Path 2" transform="translate(-53.637 -3.325)"/>
        <path id="Path_3" d="M572.02 220.483v-3.837a20.97 20.97 0 0 1 .41 3.076 1.492 1.492 0 0 1-.41.761zm0-13.153v-.585c2.608-.264 5.506-.146 7.763-.615 2.724-.556 4.862-1.347 7.674-1.289 4.774-.029 3.9.5.03 2.343a48.822 48.822 0 0 1-11.835 5.1 1.888 1.888 0 0 1-.908.059 23.051 23.051 0 0 0-2.724-5.01zm0-1.465a1.806 1.806 0 0 0 1.142-.585 637.757 637.757 0 0 1 2.49-7.851c.527-1.64 1.055-3.251 1.582-4.892.263-.82.556-1.611.849-2.432.967-5.448-3.192-1.23-6.063 2.344v13.416zm7.968 8.2c4.8-.146 11.249.79 14.294 3.925.382.41.411.322.088.791-3.514 4.834-9.93 2.138-17.956 1.377a28.406 28.406 0 0 0-.937-5.713 40.192 40.192 0 0 1 4.511-.377zm-7.968-21.615v13.416a3.252 3.252 0 0 1-1.172-.176c-.058-.029-.116-.029-.175-.059a23.313 23.313 0 0 0-5.272-4.6v-.673a10.283 10.283 0 0 0 4.042-4.336 28.924 28.924 0 0 1 2.578-3.574zm0 14.3v.585c-.147-.176-.264-.38-.41-.556.146 0 .263-.029.41-.029zm0 9.9a17.707 17.707 0 0 0-1.172-3.516 19.565 19.565 0 0 0-5.066-6.854 4.747 4.747 0 0 0-.381-.351v6.034a14.7 14.7 0 0 1 2.841 7.382 2.443 2.443 0 0 0 3.778 1.142v-3.837zm-6.62-32.46v-2.842c.645-.088.849.673 0 2.842zm-1.436 31.372a12.951 12.951 0 0 1 .967 3.545c-.439 1.758-3.749 1.523-4.247-.234a8.659 8.659 0 0 0-2.7-4.541 10.014 10.014 0 0 0-6.239-2.4v-4.16a13.7 13.7 0 0 1 8.993 3.516 11.9 11.9 0 0 1 3.222 4.276zm1.436-34.214v2.842a1.088 1.088 0 0 1-.118.263c-2.636 5.243-2.284 8.9-1.787 14.295 0 .556.029.615-.322 1h-.029a24.711 24.711 0 0 0-6.561-2.2c-.264-5.185 3.778-9.257 6.151-13.651.82-1.377 1.992-2.46 2.666-2.548zm0 19.012v.673c-.177-.117-.382-.235-.558-.352.147-.088.352-.176.558-.322zm0 5.565c-.469-.382-.938-.791-1.436-1.143a21.907 21.907 0 0 0-12.215-3.955v4.13a17.638 17.638 0 0 1 11.277 4.453c.322.264.674.586.938.85a20.172 20.172 0 0 1 1.436 1.7v-6.034zm-13.651 13.5h.088v-.025a30.457 30.457 0 0 1 5.068.352c.791.205.908-.527.791-1.083a6.035 6.035 0 0 0-5.858-4.1h-.088v4.862zm0-22.292v-13.178a46.6 46.6 0 0 1 2.636 13.3 19.5 19.5 0 0 0-2.635-.118zm0 14.793a.852.852 0 0 0-.381 0 8.976 8.976 0 0 0-6.3 2.549 7.782 7.782 0 0 0-2.284 4.453c-.675 2.431-4.278 2.138-4.19.234a12.009 12.009 0 0 1 3.574-7.674 13.484 13.484 0 0 1 9.2-3.721h.381v4.16zm0-27.974v13.181h-.029a24.219 24.219 0 0 0-5.068.586 5.8 5.8 0 0 0-1.083.264c-.117.029-.234.058-.381.087-.177-2.694 1.7-7.557 2.167-11.864.44-1.728-.263-5.1.879-6.21.381-.381 1.084-.82 1.67.234a16.967 16.967 0 0 1 1.846 3.721zm0 16.872a2.334 2.334 0 0 0-.645 0 20.484 20.484 0 0 0-14.383 5.888 6.673 6.673 0 0 0-.908.908 15.964 15.964 0 0 0-1.9 2.549v10.721a2.3 2.3 0 0 0 1.346-1.494 13.932 13.932 0 0 1 .557-3.339 13.672 13.672 0 0 1 3.808-6.444 16.338 16.338 0 0 1 11.483-4.658h.645v-4.13zm0 13.739h-.059a6 6 0 0 0-5.829 4.1c-.146.556-.029 1.289.79 1.083a30.344 30.344 0 0 1 5.039-.352v.029h.059v-4.862zm-17.839-9.726v-4.507a15.161 15.161 0 0 1 1.9 1.2 4.231 4.231 0 0 1 .908.7v.088a28.6 28.6 0 0 0-2.812 2.52zm0-12.713v-5.449a84.834 84.834 0 0 1 7.88 9.257 14.152 14.152 0 0 1 1.464 2.782 23.757 23.757 0 0 0-4.8 2.4l-1-1.464c-1.376-2.45-2.431-4.974-3.543-7.522zm0-5.449v5.449a72.874 72.874 0 0 0-1.231-2.754 15.49 15.49 0 0 1-1.875-4.071c-1.055-2.783 1.318-.322 1.963.293.41.352.791.733 1.143 1.084zm0 13.651v4.511a26.481 26.481 0 0 0-2.315 2.783 1.286 1.286 0 0 1-.323-.264 5.668 5.668 0 0 1-1.112-1.435c-.791-1.377-3.076-2.988-5.332-4.658V196.2a41.907 41.907 0 0 1 8.935 4.042l.147.089zm0 9.842v10.721c-1.231.527-2.812.029-2.812-1.113a14.824 14.824 0 0 1 .175-2.285 17.256 17.256 0 0 1 2.49-7.059 1.2 1.2 0 0 0 .147-.264zm-9.082 10.545v-4.042a12.472 12.472 0 0 1 2.7.234 20.767 20.767 0 0 0-.439 3.339c-.821.176-1.582.323-2.256.469zm0-5.77c.966.322 1.992.645 2.93.908a24.519 24.519 0 0 1 2.373-5.947l.058-.234c-.7-1.142-2.929-1.846-5.361-2.255zm0-18.747v5.068c-2.313-1.7-4.628-3.486-5.332-5.214-.117-.352-.057-.439.411-.5a14.237 14.237 0 0 1 4.921.645zm0 11.22v7.528a11.062 11.062 0 0 1-3.427-1.787c-2.549-2.284-5.975-3.28-8.729-4.833-.468-.528-.381-.791.469-1.143a21.383 21.383 0 0 1 4.335-.439 47.262 47.262 0 0 1 7.352.674zm0 9.256v4.042c-5.741 1.143-7.908 1.494-12.948-.908-.321-.146-.468-.293-.5-.439v-.029c.029-.2.322-.322.762-.439 2.728-.699 8.469-2.136 12.687-2.224z" class="cls-3" data-name="Path 3" transform="translate(-56.514 -5.614)"/>
        <path id="Path_4" d="M430.5 353.784l-.879-.439-.821-.5-.79-.557-.7-.645-.673-.731-.585-.762-.5-.849-.438-.879-.322-.966-.264-.967-.117-1.025-.029-.937.293-10.869.673-24.988v-.381l.03-.5.029-.528.088-.527.087-.528.118-.556.145-.556.177-.557.234-.557.234-.527.294-.556.323-.528.351-.527.381-.5.41-.469.439-.439.439-.439.5-.38.469-.352.5-.322.5-.294.526-.263.5-.234.526-.205.5-.206.527-.146 3.457-.966 3.514-.879 3.6-.821 3.661-.761 3.692-.645 3.778-.615 3.81-.527 3.865-.468 3.9-.41 3.955-.352 3.954-.263 3.983-.235 4.013-.146 4.014-.088 4.042-.058 4.042.029 4.013.058 4.043.118 4.012.205 4.014.2 4.013.294 3.954.321 3.955.381 3.9.41 3.895.468 3.809.527 3.808.557 3.72.586 3.662.644 3.6.674 3.545.7 3.486.762.527.146.529.146.5.146.526.206.5.205.527.234.5.263.5.294.5.322.469.352.5.38.469.439.41.439.411.469.41.5.352.527.322.528.264.556.263.527.206.557.175.557.148.556.116.556.117.528.059.527.03.528.028.5.029.381.646 24.988.292 10.869v.908l-.146 1.054-.234 1-.352.937-.44.879-.5.849-.586.791-.644.7-.732.645-.763.557-.849.5-.879.439-.908.323-.967.263-.995.146-.88.029H434.247l-.878-.029-1-.146-.967-.263z" class="cls-2" data-name="Path 4" transform="translate(0 -77.573)"/>
        <path id="Path_5" d="M433.137 354.883l-.791-.352-.733-.439-.673-.527-.644-.558-.557-.644-.527-.674-.44-.732-.381-.791-.293-.82-.233-.88-.118-.908-.029-.82.293-10.839.675-24.988v-.381l.029-.439.058-.5.058-.469.09-.468.087-.5.147-.5.176-.5.176-.5.205-.5.264-.469.293-.469.293-.469.352-.44.381-.44.382-.381.409-.381.41-.352.44-.293.439-.293.469-.263.44-.235.468-.234.468-.176.5-.175.439-.176c36.089-10.546 85.682-8.407 122.122-.234l.5.117.47.117.469.176.468.175.468.176.47.234.469.235.438.263.44.293.439.293.411.352.41.381.409.381.352.44.352.44.323.469.263.469.263.469.206.5.2.5.175.5.117.5.117.5.088.468.058.469.03.5.029.439v.381l.674 24.988.293 10.839-.029.82-.116.908-.206.88-.293.82-.381.791-.467.732-.5.7-.585.615-.645.558-.673.527-.732.439-.761.352-.819.293-.851.235-.878.117-.791.057H436.476l-.82-.057-.878-.117-.85-.235z" class="cls-4" data-name="Path 5" transform="translate(-2.17 -79.786)"/>
        <path id="Path_6" d="M503.238 302.26l3.34.058 3.954.117 3.983.176 3.955.234 3.954.264 3.925.322 3.9.381 3.838.41 3.837.469 3.779.5 3.72.556 3.692.586 3.6.615 3.544.674 3.486.7 3.4.733.383.088.381.117.351.117.38.147.352.146.351.176.352.176.322.176.323.206.293.234.293.235.293.263.263.264.264.293.235.293.205.323.2.322.176.352.146.321.117.352.118.352.116.351.059.352.058.352.059.351.03.381.029.351v.322l.673 25.017.292 10.752-.028.587-.089.585-.117.556-.2.557-.233.527-.322.469-.322.469-.381.41-.44.38-.439.323-.5.293-.527.264-.527.2-.557.146-.586.087-.586.03h-61.167v-1.2h61.134l.5-.029.469-.059.439-.117.44-.176.41-.177.382-.234.38-.292.323-.293.321-.322.265-.381.234-.381.2-.41.148-.41.117-.439.059-.469v-.5l-.293-10.723-.674-25.016v-.645l-.028-.292-.059-.323-.029-.293-.088-.293-.059-.323-.117-.263-.088-.293-.146-.293-.146-.264-.147-.263-.174-.263-.177-.235-.2-.234-.234-.234-.235-.205-.233-.2-.264-.176-.262-.175-.294-.176-.293-.147-.293-.146-.322-.117-.322-.117-.322-.117-.352-.117-.321-.059-3.37-.732-3.456-.7-3.544-.674-3.6-.615-3.661-.586-3.72-.557-3.75-.5-3.808-.469-3.837-.41-3.9-.352-3.9-.322-3.926-.294-3.954-.2-3.955-.176-3.955-.146-3.31-.059zm-63.418 55.395l-.528-.264-.469-.293-.468-.323-.411-.38-.381-.41-.351-.469-.294-.469-.263-.527-.175-.557-.147-.556-.087-.585v-.587l.292-10.752.644-25.017.03-.322v-.351l.029-.381.059-.351.059-.352.088-.352.088-.351.117-.352.117-.352.176-.321.146-.352.206-.322.205-.323.234-.293.264-.291.263-.264.292-.263.294-.235.292-.234.322-.206.352-.176.322-.176.352-.176.352-.146.381-.147.352-.117 3.309-.908 3.428-.879 3.515-.79 3.544-.7 3.632-.674 3.691-.586 3.749-.527 3.778-.44 3.838-.41 3.867-.322 3.9-.293 3.925-.205 3.926-.146 3.983-.117 3.985-.029 3.954.029h.645v1.172h-4.6l-3.985.029-3.924.088-3.926.147-3.925.234-3.866.264-3.838.322-3.809.41-3.779.44-3.72.527-3.661.586-3.6.644-3.545.732-3.456.791-3.4.85-3.28.908-.323.117-.321.117-.323.117-.293.146-.292.147-.264.176-.293.175-.235.176-.263.2-.234.205-.206.234-.206.234-.2.235-.176.263-.147.263-.145.264-.118.293-.116.293-.088.263-.089.323-.057.293-.059.293-.029.323-.029.292-.029.323v.322l-.674 25.016-.294 10.723.03.5.058.469.087.439.176.41.176.41.234.381.293.381.293.322.351.293.352.292.381.234.439.177.41.176.469.117.468.059.468.029h61.135v1.2h-61.172l-.555-.03-.586-.087-.586-.146z" class="cls-5" data-name="Path 6" transform="translate(-7.71 -85.282)"/>
        <path id="Path_7" d="M439.82 357.655l-.528-.264-.469-.293-.468-.323-.411-.38-.381-.41-.351-.469-.294-.469-.263-.527-.175-.557-.147-.556-.087-.585v-.587l.292-10.752.644-25.017.03-.322v-.352l.029-.381.058-.351.059-.351.088-.352.088-.351.117-.352.117-.352.176-.321.147-.352.205-.322.205-.323.234-.293.265-.291.263-.264.292-.263.294-.235.292-.234.322-.206.352-.176.322-.176.352-.176.352-.146.381-.148.352-.117 3.309-.908 3.428-.879 3.515-.79 3.544-.7 3.632-.674 3.691-.586 3.75-.527 3.778-.44 3.838-.41 3.867-.322 3.9-.293 3.925-.205 3.926-.146 3.983-.117 3.985-.03 3.954.03 3.984.058 3.954.117 3.984.176 3.955.235 3.954.264 3.925.322 3.9.381 3.838.41 3.837.469 3.779.5 3.72.556 3.692.586 3.6.615 3.544.674 3.486.7 3.4.733.383.088.381.117.351.117.38.148.352.146.351.176.352.176.322.176.323.206.293.234.293.235.293.263.263.264.264.293.235.293.205.323.2.322.176.352.146.321.117.352.118.352.116.351.059.352.059.351.059.351.03.381.029.352v.322l.673 25.017.292 10.752-.028.587-.089.585-.117.556-.205.557-.233.527-.322.469-.322.469-.381.41-.44.38-.439.323-.5.293-.527.264-.527.2-.557.146-.586.087-.586.03H442.074l-.555-.03-.586-.087-.586-.146z" class="cls-2" data-name="Path 7" transform="translate(-7.709 -85.282)"/>
        <path id="Path_8" d="M825.8 304.421a2.584 2.584 0 0 0 .674-.147.644.644 0 0 0 .234-.527.611.611 0 0 0-.264-.556 1.553 1.553 0 0 0-.645-.175v-.41a2.485 2.485 0 0 1 1.114.264.953.953 0 0 1 .409.82 1 1 0 0 1-.264.7.975.975 0 0 1-.645.322l.85 1.816h-.674l-.791-1.7v-.41zm0 3.6a3.868 3.868 0 0 0 1.114-.263 3.593 3.593 0 0 0 1.112-.763 3.371 3.371 0 0 0 .732-1.083 3.617 3.617 0 0 0 .234-1.289 3.914 3.914 0 0 0-.234-1.318 3.383 3.383 0 0 0-.732-1.084 3.2 3.2 0 0 0-1.112-.732 3.638 3.638 0 0 0-1.114-.264v.381a2.736 2.736 0 0 1 .966.234 3.241 3.241 0 0 1 1 .645 2.95 2.95 0 0 1 .644.967 3.213 3.213 0 0 1 .234 1.172 2.986 2.986 0 0 1-.234 1.172 2.566 2.566 0 0 1-.644.937 2.852 2.852 0 0 1-1 .674 3.851 3.851 0 0 1-.966.234zm-.2-5.009h-.734v1.405h.937v.41l-.029-.029h-.908v1.728h-.586v-3.925h1.52v.41zm.2-1.787h-.2a3.511 3.511 0 0 0-2.375.967 3.629 3.629 0 0 0-.732 1.142 3.271 3.271 0 0 0-.264 1.289 3.84 3.84 0 0 0 .235 1.289 3.134 3.134 0 0 0 .76 1.083 3.041 3.041 0 0 0 1.084.763 3.292 3.292 0 0 0 1.29.263h.2v-.381h-.2a3.182 3.182 0 0 1-1.144-.234 3.516 3.516 0 0 1-.967-.644 3.134 3.134 0 0 1-.673-1 2.932 2.932 0 0 1-.236-1.142 3.046 3.046 0 0 1 .236-1.142 3.3 3.3 0 0 1 .673-1 2.965 2.965 0 0 1 .967-.645 3.188 3.188 0 0 1 1.144-.234h.2z" class="cls-6" data-name="Path 8" transform="translate(-258.415 -84.631)"/>
        <path id="Path_9" d="M442.456 358.768l-.439-.177-.38-.234-.352-.292-.351-.293-.293-.322-.293-.381-.235-.381-.176-.41-.176-.41-.087-.439-.058-.469-.03-.5.294-10.723.674-25.017v-.32l.029-.323.029-.292.03-.323.059-.293.057-.293.089-.323.088-.263.116-.293.118-.293.145-.264.147-.263.177-.263.2-.235.206-.235.206-.234.234-.205.263-.2.235-.176.293-.175.264-.176.292-.147.293-.146.323-.117.321-.117.323-.117 3.28-.908 3.4-.849 3.456-.791 3.545-.732 3.6-.644 3.661-.586 3.72-.527 3.779-.44 3.809-.41 3.838-.322 3.866-.264 3.925-.234 3.926-.147 3.924-.088 3.985-.03h3.954l3.955.059 3.955.146 3.955.176 3.954.2 3.926.294 3.9.322 3.9.352 3.837.41 3.808.469 3.75.5 3.72.557 3.661.586 3.6.615 3.544.674 3.456.7 3.37.732.321.059.352.117.322.117.322.117.322.117.293.146.293.147.294.176.263.175.264.176.233.2.235.205.234.234.2.235.177.235.175.263.147.263.146.264.146.293.088.293.117.263.059.323.088.293.029.293.059.323.028.292v.645l.674 25.017.293 10.723v.5l-.059.469-.115.439-.148.41-.2.41-.234.381-.265.381-.321.322-.323.293-.379.292-.382.234-.41.177-.44.176-.439.117-.469.059-.5.029H444.272l-.468-.029-.469-.059-.469-.117z" class="cls-1" data-name="Path 9" transform="translate(-9.878 -87.508)"/>
        <path id="Path_10" d="M571.053 425.277v-2.4h1.147l-1.114-3.926-.029.029v-3.58h1.843l3.984 11.367h-3.6l-.409-1.494zm0-9.873v3.574l-1.142 3.9h1.142v2.4h-1.786l-.439 1.494h-3.574l3.984-11.367zm-15.348 7.471V420.3h.088a2.25 2.25 0 0 0 1.112-.234 1.133 1.133 0 0 0 .41-1.026 1.474 1.474 0 0 0-.2-.5.982.982 0 0 0-.41-.293 3.93 3.93 0 0 0-1-.088v-2.725h.264a12.953 12.953 0 0 1 2.226.176 3.419 3.419 0 0 1 1.67.791 2.609 2.609 0 0 1 .761 1.817 4.059 4.059 0 0 1 .029.5 2.938 2.938 0 0 1-.41 1.669 3.489 3.489 0 0 1-1.406 1.113 2.528 2.528 0 0 1 1.406.85 3.159 3.159 0 0 1 .44 1.67l.059 1.582a2.039 2.039 0 0 0 .058.528.376.376 0 0 0 .294.205v.439H557.4a9 9 0 0 1-.206-1.465c0-.088.03-.205.03-.381v-.381a2.439 2.439 0 0 0-.205-1.113 1.1 1.1 0 0 0-1.113-.556zm0-7.443v2.725h-1.582v2.143h1.582v2.579c-.381 0-.908-.029-1.582-.029v3.925h-3.573v-11.342zm-15.848 9.844v-2.4H541l-1.143-3.926v-3.55h1.843l3.984 11.367h-3.6l-.439-1.494zm-78.769 1.494h-3.28V415.4h4.392l1.581 5.684c.146.587.264 1.143.381 1.67q.263-1.274.352-1.67l1.611-5.684h4.423v11.367h-3.31l.059-5.6v-1.992c-.118.615-.293 1.289-.469 2.021l-1.406 5.567h-2.518l-1.407-5.449c-.117-.41-.264-1.113-.469-2.139 0 .234.029.556.029 1 .029.44.029.791.029 1.113v5.479zm78.769-11.37v3.574l-1.142 3.9h1.142v2.4h-1.816l-.439 1.494h-3.544l3.954-11.367zm-63.331 11.367V415.4h3.633v8.35h4.921v3.017zm13.123-4.892h3.222c0 .117-.029.263-.029.439 0 .205-.028.353-.028.47 0 .85.264 1.317.761 1.406a1.016 1.016 0 0 0 .938-.381 2.377 2.377 0 0 0 .235-1.142V415.4h3.632v7.647a4.2 4.2 0 0 1-.7 2.46 3.366 3.366 0 0 1-2.02 1.376 6.623 6.623 0 0 1-1.728.205 5.264 5.264 0 0 1-2.08-.381 3.248 3.248 0 0 1-1.231-.82 2.94 2.94 0 0 1-.673-1.113 6.865 6.865 0 0 1-.235-1.259c-.028-.44-.058-1-.058-1.641zm14.647 4.892V415.4h9.052v2.725h-5.419v1.523h4.571v2.607h-4.568v1.728h5.624v2.783zm14.763 0V415.4h3.6v3.779l3.252-3.779h4.189l-4.013 4.189 4.57 7.178h-4.336l-2.782-4.541-.88.908v3.633z" class="cls-7" data-name="Path 10" transform="translate(-21.715 -158.792)"/>
        <path id="Path_11" d="M552.751 346.646v-.674a3.922 3.922 0 0 0 3.632-2.2 15.212 15.212 0 0 0 .645-5.008V325.2a8.928 8.928 0 0 0-.5-3.515c-.411-.937-1.962-1.494-3.046-1.7a2.606 2.606 0 0 1 1.465 1.7 11.322 11.322 0 0 1 .38 3.369v13.68a20.09 20.09 0 0 1-.38 4.745 3.36 3.36 0 0 1-2.2 2.489v-.2a2.755 2.755 0 0 0 1.347-2.021 22.278 22.278 0 0 0 .382-5.068V324.94a12.147 12.147 0 0 0-.382-3.4 2.882 2.882 0 0 0-1.347-1.641v-.029h.029v-.67h-.029q9.184 1.713 18.4 3.954c.234 1.113.469 2.226.731 3.34.235 1.113.469 2.226.733 3.309-.234-.058-.44-.087-.674-.146a21.828 21.828 0 0 0-4.07-4.657 10.393 10.393 0 0 0-4.657-2.373c-1.056-.2-2.08-.439-3.135-.644v10.193c.644.088 1.289.176 1.9.234a8.651 8.651 0 0 0 3.924-.263 4.193 4.193 0 0 0 2.7-2.9 5.023 5.023 0 0 1 .585.117v9.314c-.176-.029-.351-.029-.5-.058a5.358 5.358 0 0 0-2.284-3.22 9.588 9.588 0 0 0-4.423-1.523c-.616-.088-1.26-.147-1.9-.235v5.947a8.431 8.431 0 0 0 .821 4.365c.528.82 1.551 1.23 3.075 1.259a9.922 9.922 0 0 0 5.771-2.168 21.751 21.751 0 0 0 4.453-4.394c.147.088.321.176.5.264-.381 1.289-.819 2.578-1.2 3.867-.38 1.318-.79 2.636-1.171 3.984q-9.805-.091-19.575-.12zm0-27.447l-.146-.029v.674c.059 0 .089.029.146.058v-.029a1.639 1.639 0 0 0-.41.117v-.85l.41.059zm0 26.568V346.641h-.41v-.732a.974.974 0 0 0 .41-.142zm-.41-26.627v.85c-.966.352-1.728 1.348-2.256 2.959a17.1 17.1 0 0 0-.7 5.185v17.9a1.792 1.792 0 0 1-.264 1.084.658.658 0 0 1-.469.322c-.175 0-.556-.352-1.113-1.143q-4-5.757-7.908-11.805c-.235-.352-.47-.732-.7-1.083v-1.553c.381.586.732 1.172 1.113 1.758 2.9 4.511 5.624 8.524 8.554 12.8l.058-2.841q-3.955-5.843-7.85-11.892c-.645-1-1.26-1.963-1.875-2.93v-6.711c.938 1.406 1.9 2.812 2.87 4.218 2.08 3.047 4.19 6.035 6.3 8.993v-7.264a21.989 21.989 0 0 0-.557-5.36c-.5-2.021-1.348-3.369-2.578-3.984V318c2.461.352 4.892.733 7.382 1.143zm0 26.774a2.538 2.538 0 0 1-.469.058v.644l.469.03zm-13.416-23.874v6.708q-3.6-5.668-7.147-11.424c-.558-.059-2.05-.235-2.607-.293a1.084 1.084 0 0 1 .7.526c.5.674.938 1.435 1.407 2.139 2.548 4.1 5.067 8.172 7.645 12.157v1.553q-3.6-5.581-7.206-11.278V336.6a21.743 21.743 0 0 0 .615 5.6c.558 2.05 1.407 3.31 2.607 3.749v.615h-7.819c0-.205.03-.381.03-.556 1.142-.44 2.021-1.758 2.636-3.984a19.6 19.6 0 0 0 .761-5.36v-12.251a22.924 22.924 0 0 0-.352-4.834 3.608 3.608 0 0 0-2.284-2.637v-.674c2.52.176 5.039.41 7.557.615 1.142 1.728 2.314 3.428 3.457 5.156zm-20.534 24.489v-1.465a3.508 3.508 0 0 0 1.23-1.786 25.042 25.042 0 0 0 .528-6.034v-16.58a5.366 5.366 0 0 0-.673-2.929 2.376 2.376 0 0 0-1.084-.821v-1.025c2.2.059 4.394.147 6.59.235v.732a2.029 2.029 0 0 0-1.288 1.055 6.52 6.52 0 0 0-.41 2.695v16.7a33.146 33.146 0 0 0 .352 6.064c.321 1.553.936 2.314 1.932 2.314v.878c-2.4-.029-4.8-.029-7.176-.029zm0-3.369a28.83 28.83 0 0 0 .234-2.08c.059-1.025.088-2.285.088-3.837v-16.609a9.04 9.04 0 0 0-.322-2.724zm0-27.272v1.025a4.389 4.389 0 0 0-1.406-.321 2.953 2.953 0 0 1 1.231.966c.057.118.117.235.175.352v25.25a2.36 2.36 0 0 1-.118.439c-.293 1.26-.849 1.962-1.669 2.08a3.065 3.065 0 0 0 1.787-.615v1.465h-3.105v-.85c1.025 0 1.786-.791 2.139-2.432a29.542 29.542 0 0 0 .41-5.975v-16.638a6.83 6.83 0 0 0-.5-3.047 3.281 3.281 0 0 0-1.232-1v-.734c.762 0 1.523.03 2.285.03zm-16.316 30.669v-11.745l.438-.937c1.818-3.925 3.6-7.88 5.421-11.835.234-.528.439-1.084.643-1.7.47-1.523-1.083-2.783-2.284-2.783a4.877 4.877 0 0 1-.643.03 1.713 1.713 0 0 1 1.023.381 1.165 1.165 0 0 1 .529.937 6.413 6.413 0 0 1-.236 1.406 10.93 10.93 0 0 1-.586 1.728c-1.436 3.134-2.871 6.268-4.305 9.345v-1.846c1.142-2.49 2.255-4.98 3.4-7.47a12.734 12.734 0 0 0 .674-1.728 5.58 5.58 0 0 0 .263-1.436 1.1 1.1 0 0 0-.586-.966 1.743 1.743 0 0 0-1.085-.293 8.949 8.949 0 0 0-2.665.5v-1.992c3.924-.205 7.879-.322 11.805-.381-1.641 4.043-3.311 8.085-4.95 12.127-1.642 3.984-3.31 8.026-4.951 12.039-.147.352-.264.7-.411 1.084 0 .088-.145.528-.381 1.348a6.592 6.592 0 0 0-.379 1.729.918.918 0 0 0 .468.7 2.328 2.328 0 0 0 1.172.234c1.787 0 3.632-.937 5.507-2.812a20.883 20.883 0 0 0 4.218-6.181h.587c-.411 1.758-.762 3.516-1.144 5.244-.381 1.757-.791 3.515-1.171 5.243-3.458.002-6.915.002-10.371.031zm0-30.406v1.992a8.425 8.425 0 0 0-2.607 1.435 17.348 17.348 0 0 0-4.307 5.478l-.38.029v-.82c.292-1.172.556-2.314.82-3.486.351-1.435.7-2.9 1.025-4.364 1.815-.088 3.633-.205 5.449-.264zm0 13.387v1.846l-1.142 2.519q-2.726 5.888-5.449 11.687h1.582c1.669-3.574 3.339-7.147 5.01-10.779v11.746h-6.709v-.878a2.9 2.9 0 0 1-.585-.322v-.057c1.67-3.6 3.368-7.235 5.037-10.9.762-1.609 1.494-3.25 2.256-4.861zm-7.294-5.273v.82h-.205l.205-.82zm0 21.032v.059a4.135 4.135 0 0 1-.908-.966 21.827 21.827 0 0 1-1.9-4.014c-1.406-3.691-2.783-7.382-4.16-10.956-1-2.607-2.051-5.185-3.046-7.733v9.227c1.229 3.311 2.4 6.679 3.515 10.048.82 2.52.527 4.774-2.666 4.922a5.2 5.2 0 0 0 1.231-.645 2.128 2.128 0 0 0 .469-1.612 3.61 3.61 0 0 0-.088-.849 6.8 6.8 0 0 0-.234-1.025c-.234-.85-.5-1.669-.732-2.49l-1.493-4.13v2.519l.614 1.64c.205.615.44 1.231.615 1.846a9.913 9.913 0 0 1 .469 2.489 2.283 2.283 0 0 1-.469 1.64 2.8 2.8 0 0 1-1.229.616v.7c3.339 0 6.678-.029 10.018-.029h-.587zm-10.018-23.61v9.227a577.109 577.109 0 0 1-2.7-7.177v-5.272c.293-.82.469-1.289.673-1.318.2-.059.469.527.879 1.641l1.143 2.9zm0 13.446c-.41-1.113-.821-2.227-1.231-3.311-.469-1.348-.967-2.665-1.465-4.013v2.432c.381 1.143.791 2.285 1.2 3.427-.41.029-.82.059-1.2.088v1.435l1.7-.088c.322.849.645 1.7 1 2.548v-2.519zm0 10.751v.7h-.03v-.7zm-2.7-27.419v5.272l-.439-1.142-.762 1.991c.38 1.084.79 2.139 1.2 3.222v2.432l-.205-.527c-.469-1.289-.908-2.578-1.376-3.9l-.088.2v-2.929c.527-1.435 1.055-2.841 1.553-4.277a1.64 1.64 0 0 1 .117-.351zm0 15.291v1.435c-.557.029-1.113.059-1.67.117v-1.435c.562-.057 1.118-.086 1.675-.116zm-6.122 3.309c-.352 1.611-.733 3.223-1.084 4.8-.352 1.612-.733 3.193-1.084 4.775h-.968l4.745-.03v-.673a3.943 3.943 0 0 1-1.845-1.055 3.368 3.368 0 0 1-.7-2.314 9.319 9.319 0 0 1 .146-1.259A15.477 15.477 0 0 1 475.8 339c.41-1.172.849-2.314 1.259-3.486 1.113-.088 2.226-.147 3.34-.205v-1.435l-2.842.176c.469-1.348.968-2.725 1.466-4.072.44-1.289.908-2.607 1.377-3.955v-2.929c-.761 2.08-1.524 4.159-2.285 6.21-1.26 3.4-2.519 6.766-3.807 10.077a25.8 25.8 0 0 1-1.495 3.222v-1.992a28.38 28.38 0 0 0 2.548-3.925c.204.147.409.264.585.381zm-3.135 9.579l-16.2.088v-1.172a3.951 3.951 0 0 0 1.289-1.728 11.5 11.5 0 0 0 .732-4.335v-12.214a4.5 4.5 0 0 0-.732-2.87 2.042 2.042 0 0 0-1.289-.587v-.819c2.548-.645 5.1-1.23 7.646-1.787 0 .205-.029.41-.029.615a3.042 3.042 0 0 0-1.639 1.612 8.279 8.279 0 0 0-.469 3.222v13.24a8.755 8.755 0 0 0 .732 4.219 2.6 2.6 0 0 0 2.52 1.259c1.815-.029 3.721-.937 5.683-2.812a19.51 19.51 0 0 0 1.758-1.963v1.988a14.882 14.882 0 0 1-1.084 1.67c-.849 1.113-1.523 1.728-2.08 1.816v.557zm-16.2-2.49c.029-.117.059-.205.089-.323a13.407 13.407 0 0 0 .614-4.247v-12.126a6.883 6.883 0 0 0-.41-2.812 1.857 1.857 0 0 0-.293-.38zm0 2.577l-2.9.029v-.5c.967 0 1.729-.791 2.2-2.372a14.215 14.215 0 0 0 .557-4.247v-12.006a6.665 6.665 0 0 0-.41-2.754 1.605 1.605 0 0 0-1.553-.79v-.558l2.109-.526v.819a3.165 3.165 0 0 0-1.289.059 1.93 1.93 0 0 1 1.289.381v19.89c-.527 1.405-1.2 2.108-2.05 2.108a3.534 3.534 0 0 0 2.05-.7z" class="cls-7" data-name="Path 11" transform="translate(-19.054 -94.077)"/>
    </g>
</svg>
