<svg xmlns="http://www.w3.org/2000/svg" id="shopping-cart_1_" width="22.765" height="22.765" data-name="shopping-cart (1)" viewBox="0 0 22.765 22.765">
    <defs>
        <style>
            .cls-1{fill:#e55d09}
        </style>
    </defs>
    <g id="shopping-cart">
        <path id="Path_223" d="M6.829 18.212a2.277 2.277 0 1 0 2.276 2.277 2.283 2.283 0 0 0-2.276-2.277zM0 0v2.277h2.276l4.1 8.651-1.595 2.731a4.044 4.044 0 0 0-.228 1.141 2.283 2.283 0 0 0 2.276 2.277h13.659V14.8H7.285a.245.245 0 0 1-.228-.228v-.114l1.024-1.935H16.5a2.076 2.076 0 0 0 1.935-1.138l4.1-7.4a.627.627 0 0 0 .228-.569 1.075 1.075 0 0 0-1.138-1.138H4.781L3.756 0zm18.212 18.212a2.277 2.277 0 1 0 2.276 2.277 2.283 2.283 0 0 0-2.276-2.277z" class="cls-1" data-name="Path 223"/>
    </g>
</svg>
