<?xml version="1.0" encoding="utf-8"?>
<!-- Generator: Adobe Illustrator 19.2.1, SVG Export Plug-In . SVG Version: 6.00 Build 0)  -->
<svg version="1.1" id="Layer_1" xmlns="http://www.w3.org/2000/svg" xmlns:xlink="http://www.w3.org/1999/xlink" x="0px" y="0px"
	 viewBox="0 0 1276 606" style="enable-background:new 0 0 1276 606;" xml:space="preserve">
<style type="text/css">
	.st0{fill:#291568;}
</style>
<g>
	<path id="shutterstock_1464018281-2" class="st0" d="M129.6,573.9c24.5-12.2,42.2-21.1,83.1-21.1s58.6,8.8,83.1,21.1
		c28.6,14.3,64.2,32.1,129.6,32.1s101-17.8,129.6-32.1c24.5-12.2,42.2-21.1,83.1-21.1s58.6,8.8,83.1,21.1
		c28.6,14.3,64.2,32.1,129.6,32.1s101-17.8,129.6-32.1c24.5-12.2,42.2-21.1,83.1-21.1s58.6,8.8,83.1,21.1
		c28.6,14.3,64.2,32.1,129.6,32.1V0H0v606C65.4,606,101,588.2,129.6,573.9L129.6,573.9z"/>
</g>
</svg>
