<?xml version="1.0" encoding="utf-8"?>
<!-- Generator: Adobe Illustrator 19.2.1, SVG Export Plug-In . SVG Version: 6.00 Build 0)  -->
<svg version="1.1" id="Layer_1" xmlns="http://www.w3.org/2000/svg" xmlns:xlink="http://www.w3.org/1999/xlink" x="0px" y="0px"
	 viewBox="0 0 1953.2 927.9" style="enable-background:new 0 0 1953.2 927.9;" xml:space="preserve">
<style type="text/css">
	.st0{fill:#291568;}
</style>
<g>
	<path id="shutterstock_1464018281-2" class="st0" d="M-407.5,878.8c57.7-18.7,99.3-32.2,195.6-32.2s138,13.5,195.6,32.2
		c67.3,21.9,151.1,49.1,305.2,49.1s237.9-27.2,305.2-49.1c57.6-18.7,99.3-32.2,195.6-32.2s138,13.5,195.6,32.2
		c67.3,21.9,151.1,49.1,305.2,49.1s237.9-27.2,305.2-49.1c57.6-18.7,99.3-32.2,195.6-32.2s138,13.5,195.6,32.2
		c67.3,21.9,151.1,49.1,305.2,49.1V0H-712.7v927.9C-558.6,927.9-474.8,900.7-407.5,878.8L-407.5,878.8z"/>
</g>
<image style="overflow:visible;" width="5944" height="1772" xlink:href="png slike/shutterstock_1464018281@2x.png"  transform="matrix(0.5056 0 0 0.5056 -712.7402 0)">
</image>
</svg>
