<?xml version="1.0" encoding="utf-8"?>
<!-- Generator: Adobe Illustrator 19.2.1, SVG Export Plug-In . SVG Version: 6.00 Build 0)  -->
<svg version="1.1" id="Layer_1" xmlns="http://www.w3.org/2000/svg" xmlns:xlink="http://www.w3.org/1999/xlink" x="0px" y="0px"
	 viewBox="0 0 2132 1009.7" style="enable-background:new 0 0 2132 1009.7;" xml:space="preserve">
<style type="text/css">
	.st0{fill:#291568;}
</style>
<g>
	<path id="shutterstock_1464018281-2" class="st0" d="M-447.8,956.1c62.9-20.4,108.4-35.2,213.5-35.2s150.6,14.8,213.5,35.2
		c73.5,23.9,165,53.6,333.2,53.6s259.7-29.7,333.2-53.6c62.9-20.4,108.4-35.2,213.5-35.2s150.6,14.8,213.5,35.2
		c73.5,23.9,164.9,53.6,333.2,53.6s259.7-29.7,333.2-53.6c62.9-20.4,108.4-35.2,213.5-35.2s150.6,14.8,213.5,35.2
		c73.5,23.9,164.9,53.6,333.2,53.6V-3.1H-781v1012.7C-612.8,1009.6-521.3,979.9-447.8,956.1L-447.8,956.1z"/>
</g>
<image style="overflow:visible;" width="5944" height="1772" xlink:href="png slike/shutterstock_1464018281@2x.png"  transform="matrix(0.5526 0 0 0.5526 -785.5974 -3.0681)">
</image>
</svg>
